<svg xmlns:dc="http://purl.org/dc/elements/1.1/" xmlns:cc="http://creativecommons.org/ns#" xmlns:rdf="http://www.w3.org/1999/02/22-rdf-syntax-ns#" xmlns:svg="http://www.w3.org/2000/svg" xmlns="http://www.w3.org/2000/svg" xmlns:sodipodi="http://sodipodi.sourceforge.net/DTD/sodipodi-0.dtd" xmlns:inkscape="http://www.inkscape.org/namespaces/inkscape" version="1.1" x="0px" y="0px" viewBox="0 0 100 125"><g transform="translate(0,-952.36218)"><path style="color:#000000;enable-background:accumulate;" d="m 50.000002,959.36215 c -23.74824,0 -43,19.2518 -43,43.00005 0,23.7482 19.25176,43 43,43 23.74824,0 42.999996,-19.2518 42.999996,-43 0,-23.74825 -19.251756,-43.00005 -42.999996,-43.00005 z m -5.1875,10.5 10.375,0 c 4.31034,0 7.8125,3.571 7.8125,7.9062 l 0,24.84375 c 0,7.2821 -5.80823,13.2501 -13,13.2501 -7.19185,0 -13,-5.968 -13,-13.2501 l 0,-24.84375 c 0,-4.3351 3.50223,-7.9062 7.8125,-7.9062 z m 0,4 c -2.11873,0 -3.8125,1.6662 -3.8125,3.9062 l 0,24.84375 c 0,5.1831 4.00365,9.2501 9,9.2501 4.99623,0 9,-4.067 9,-9.2501 l 0,-24.84375 c 0,-2.24 -1.69364,-3.9062 -3.8125,-3.9062 l -10.375,0 z m -15.03125,25.9688 c 1.12799,-0.1244 2.24325,0.89665 2.21875,2.03125 0,10.0069 7.99324,18 18,18 10.00676,0 18,-7.9931 18,-18 -0.0107,-1.054 0.94598,-2.03125 2,-2.03125 1.05402,0 2.0107,0.97725 2,2.03125 0,11.4786 -8.7854,20.8954 -20,21.9062 l 0,7.0938 9.5,0 c 1.05691,-0.015 2.03125,0.943 2.03125,2 0,1.057 -0.97434,2.015 -2.03125,2 l -23,0 c -1.04732,0.049 -2.04465,-0.8589 -2.09375,-1.9062 -0.0491,-1.0474 0.85891,-2.0448 1.90625,-2.0938 l 9.6875,0 0,-7.0938 c -11.2146,-1.0108 -20,-10.4276 -20,-21.9062 -0.0213,-0.9884 0.7985,-1.92335 1.78125,-2.03125 z" fill="#000000" stroke="none" marker="none" visibility="visible" display="inline" overflow="visible"/></g></svg>
